Coordinates
version=1
nRows=6
nColumns=63
inDegrees=yes

Units are S.I. units (second, meters, Newtons, ...)
If the header above contains a line with 'inDegrees', this indicates whether rotational values are in degrees (yes) or radians (no).

endheader
time	pelvis_tilt	pelvis_list	pelvis_rotation	pelvis_tx	pelvis_ty	pelvis_tz	hip_flexion_r	hip_adduction_r	hip_rotation_r	knee_angle_r	knee_angle_r_beta	ankle_angle_r	subtalar_angle_r	mtp_angle_r	hip_flexion_l	hip_adduction_l	hip_rotation_l	knee_angle_l	knee_angle_l_beta	ankle_angle_l	subtalar_angle_l	mtp_angle_l	L5_S1_Flex_Ext	L5_S1_Lat_Bending	L5_S1_axial_rotation	L4_L5_Flex_Ext	L4_L5_Lat_Bending	L4_L5_axial_rotation	L3_L4_Flex_Ext	L3_L4_Lat_Bending	L3_L4_axial_rotation	L2_L3_Flex_Ext	L2_L3_Lat_Bending	L2_L3_axial_rotation	L1_L2_Flex_Ext	L1_L2_Lat_Bending	L1_L2_axial_rotation	L1_T12_Flex_Ext	L1_T12_Lat_Bending	L1_T12_axial_rotation	Abs_r3	Abs_r2	Abs_r1	Abs_t1	Abs_t2	neck_flexion	neck_bending	neck_rotation	arm_flex_r	arm_add_r	arm_rot_r	elbow_flex_r	pro_sup_r	wrist_flex_r	wrist_dev_r	arm_flex_l	arm_add_l	arm_rot_l	elbow_flex_l	pro_sup_l	wrist_flex_l	wrist_dev_l
      1.67796610	      5.37361332	      3.73819760	     96.72972818	      0.25619170	      0.70000993	      0.63077410	     -0.88921976	      3.97661933	    -11.83837833	     11.35811528	      0.19823651	     27.91289049	      3.82106883	      0.00000000	     -4.85418081	     -6.41761607	      8.55055629	      1.10944079	      0.01936339	     31.31336515	     -0.19087540	      0.00000000	      0.01420552	      0.70645791	     -0.14069891	      0.02638108	      0.93958902	     -0.14949259	      0.02333825	      1.71768177	     -0.14949259	      0.01623549	      1.71768177	     -0.12311155	      0.01319125	      1.44060897	     -0.11431786	      0.00811704	      1.09430331	     -0.10552418	      0.10146863	      7.99159319	     -0.78252513	      0.00000000	      0.00000000	     14.30543226	      3.62890594	     -1.67932148	     22.96437477	    -26.79152194	    -12.09826569	     76.10808504	     72.74752762	     -9.63550601	     10.78983614	      9.51951210	     -7.03367924	    -12.53309978	    101.90882088	     74.37778529	     -8.08639215	      9.51513078
      1.69491525	      5.47021500	      3.71821750	     96.65317184	      0.25728450	      0.70005620	      0.63004016	     -1.11944622	      4.21721432	    -11.67882900	     10.89815330	      0.19020866	     27.63798750	      3.92029053	      0.00000000	     -4.87602795	     -6.60031861	      7.79754482	      1.08225578	      0.01888893	     31.55628832	      0.67929459	      0.00000000	      0.01983310	      0.70249905	     -0.09391182	      0.03683205	      0.93432373	     -0.09978130	      0.03258380	      1.70805618	     -0.09978130	      0.02266725	      1.70805618	     -0.08217284	      0.01841702	      1.43253606	     -0.07630335	      0.01133263	      1.08817102	     -0.07043386	      0.14166585	      7.94680971	     -0.52230934	      0.00000000	      0.00000000	     13.95216279	      3.65161557	     -1.83042073	     21.61215176	    -26.53581339	    -12.62398256	     77.97958290	     72.78015386	     -9.09011206	     12.46461468	     10.04603336	     -7.68393787	    -11.66668043	    100.97650788	     73.63904555	     -8.27383767	      8.81023853
      1.71186441	      5.39816134	      3.65049814	     96.83209026	      0.25839938	      0.69996205	      0.62965273	     -1.23652819	      4.37626648	    -10.71435309	     10.59185552	      0.18486275	     27.16183067	      2.48925792	      0.00000000	     -4.80659644	     -6.60941061	      9.78178466	      1.03386301	      0.01804431	     31.08285600	     -1.78545458	      0.00000000	      0.02639463	      0.66972212	     -0.05016205	      0.04901747	      0.89073041	     -0.05329718	      0.04336374	      1.62836235	     -0.05329718	      0.03016643	      1.62836235	     -0.04389180	      0.02451006	      1.36569734	     -0.04075667	      0.01508189	      1.03739956	     -0.03762154	      0.18853423	      7.57603052	     -0.27898630	      0.00000000	      0.00000000	     13.80279797	      3.61598681	     -2.51318336	     20.32332423	    -25.85028479	    -13.92815926	     79.88208790	     75.06062344	     -7.83921545	     14.35301023	     10.46392365	     -8.63002372	    -10.63850876	    100.11259523	     75.52855557	     -9.12495372	      7.84218267
      1.72881356	      5.36652484	      3.59305139	     96.88994654	      0.25930495	      0.69984531	      0.62951985	     -1.37706318	      4.47087824	    -10.44175033	     10.27595762	      0.17934929	     26.80574325	      2.40156894	      0.00000000	     -4.73756461	     -6.64376799	      9.97760636	      1.03272858	      0.01802451	     31.04652552	     -1.96578845	      0.00000000	      0.03157808	      0.65635458	     -0.07056320	      0.05864364	      0.87295159	     -0.07497340	      0.05187962	      1.59586052	     -0.07497340	      0.03609058	      1.59586052	     -0.06174280	      0.02932340	      1.33843826	     -0.05733260	      0.01804371	      1.01669324	     -0.05292240	      0.22555903	      7.42481426	     -0.39245133	      0.00000000	      0.00000000	     13.54004124	      3.64895326	     -2.15082219	     19.44624357	    -25.40627353	    -13.98410778	     81.75502975	     74.55271552	     -7.04665693	     15.38975710	     10.44759560	     -9.66060363	    -10.12959761	     99.45490219	     76.32155577	     -9.10301119	      7.58071553
      1.74576271	      5.42542007	      3.62076119	     96.73551806	      0.26007802	      0.69975878	      0.63046707	     -1.35477636	      4.57529648	    -10.20498908	     10.33817748	      0.18043524	     26.48980624	      2.54706241	      0.00000000	     -4.71189287	     -6.72636418	      9.86247531	      1.06505252	      0.01858867	     31.02710645	     -2.08946631	      0.00000000	      0.00574908	      0.65461133	     -0.13854669	      0.01067661	      0.87063307	     -0.14720586	      0.00944516	      1.59162199	     -0.14720586	      0.00657062	      1.59162199	     -0.12122835	      0.00533859	      1.33488343	     -0.11256918	      0.00328502	      1.01399295	     -0.10391002	      0.04106509	      7.40509431	     -0.77055512	      0.00000000	      0.00000000	     13.36928295	      3.72726753	     -2.18491785	     19.13537313	    -24.88355251	    -13.29173234	     83.47928434	     74.45342523	     -6.55980657	     15.36769766	     10.46126692	    -10.14844453	    -10.00797500	     98.72708058	     76.56344579	     -9.12213967	      7.66248708
      1.76271186	      5.40777612	      3.51244803	     96.59065522	      0.26070697	      0.69947431	      0.63064486	     -1.42795863	      4.72603065	     -8.50683174	      9.94515599	      0.17357572	     25.86521889	      0.82578105	      0.00000000	     -4.61462675	     -6.70415684	     10.18412882	      1.08707743	      0.01897308	     30.85720750	     -2.77994918	      0.00000000	      0.02333554	      0.64593469	     -0.00683014	      0.04333644	      0.85909314	     -0.00725702	      0.03833796	      1.57052560	     -0.00725702	      0.02667019	      1.57052560	     -0.00597637	      0.02166938	      1.31719002	     -0.00554949	      0.01333393	      1.00055283	     -0.00512260	      0.16668344	      7.30694238	     -0.03798718	      0.00000000	      0.00000000	     13.36570162	      3.73019757	     -2.42195792	     17.17971564	    -24.52140402	    -14.74911566	     86.80035101	     71.67255665	     -4.20372538	     16.45038857	     11.34862476	    -10.96260645	     -7.86386785	     96.99791713	     81.69408553	     -9.03760167	      7.33248578
